<?xml version="1.0" encoding="UTF-8"?>
<svg width="216px" height="216px" viewBox="0 0 216 216" version="1.1" xmlns="http://www.w3.org/2000/svg" xmlns:xlink="http://www.w3.org/1999/xlink">
    <!-- Generator: Sketch 63.1 (92452) - https://sketch.com -->
    <title>Divum_Logo (1) Copy 2</title>
    <desc>Created with Sketch.</desc>
    <defs>
        <polygon id="path-1" points="0.0130075617 0.129015741 150.670923 0.129015741 150.670923 60.0385689 0.0130075617 60.0385689"></polygon>
    </defs>
    <g id="Divum_Logo-(1)-Copy-2" stroke="none" stroke-width="1" fill="none" fill-rule="evenodd">
        <g id="Group-2">
            <rect id="Rectangle" fill="#FFFFFF" x="0" y="0" width="216" height="216"></rect>
            <g id="Group" transform="translate(0.000000, 41.000000)">
                <g id="Group-4" transform="translate(0.000000, 72.339820)">
                    <mask id="mask-2" fill="white">
                        <use xlink:href="#path-1"></use>
                    </mask>
                    <g id="Clip-2"></g>
                    <path d="M113.237979,1.95113425 C113.237979,1.95113425 113.247084,27.7223658 113.237979,35.8432034 C113.490976,49.4287344 117.664235,53.060012 128.485876,53.2588109 C142.541197,53.060012 142.87961,44.5216318 143.083179,36.2767888 C143.295202,27.6976515 143.083179,1.95113425 143.083179,1.95113425 L150.670923,1.95113425 C150.670923,1.95113425 150.670923,30.3509773 150.670923,38.8783011 C150.237337,48.922957 146.046084,60.0515764 128.63026,60.0515764 C108.540948,60.0515764 106.517405,46.9718228 105.867027,39.9622646 C105.794835,31.0013554 105.867027,1.95113425 105.867027,1.95113425 L113.237979,1.95113425" id="Fill-1" fill="#48924A" mask="url(#mask-2)"></path>
                    <path d="M0,0.216792695 L0,57.3416678 C0,57.3416678 18.3755656,57.5103325 24.4975745,57.3416678 C28.9025853,57.2200471 35.9865034,56.7075491 40.7483549,50.5126979 C51.163076,36.9631545 47.9111855,17.1266229 42.1340938,8.80286737 C36.6707011,0.931558209 29.9880663,0.364645313 25.2563489,0.216792695 C18.9455136,0.0192945498 0,0.216792695 0,0.216792695" id="Fill-3" fill="#C53A2F" mask="url(#mask-2)"></path>
                </g>
                <path d="M7.7394992,79.6565734 L7.7394992,123.448915 C7.7394992,123.448915 19.9340883,123.448915 23.9989513,123.448915 C27.9029542,123.448915 35.2680524,120.513325 38.0026754,113.943205 C40.2198143,108.616609 40.5235409,96.2080453 38.0904765,90.4962082 C34.7275882,82.6014854 28.9661055,79.6565734 24.6493294,79.6565734 C20.4218718,79.6565734 7.7394992,79.6565734 7.7394992,79.6565734" id="Fill-5" fill="#FFFFFE"></path>
                <polygon id="Fill-6" fill="#4D9CC8" points="53.1142102 129.873783 60.8103509 129.873783 60.8103509 72.3515268 53.1142102 72.3515268"></polygon>
                <polyline id="Fill-7" fill="#6C71A6" points="168.014338 131.524226 168.014338 83.1794547 184.635184 131.524226 191.500141 131.524226 208.048795 83.8298328 208.048795 131.524226 215.419747 131.524226 215.419747 74.2909542 204.7607 74.2909542 188.447267 123.249899 172.205592 74.2909542 160.787988 74.2909542 160.787988 131.524226 168.014338 131.524226"></polyline>
                <path d="M98.1442208,17.632617 C98.1442208,27.3707281 91.5764862,35.2650173 83.4747264,35.2650173 C75.3729666,35.2650173 68.8050151,27.3707281 68.8050151,17.632617 C68.8050151,7.89428919 75.3729666,-1.2323238e-14 83.4747264,-1.2323238e-14 C91.5764862,-1.2323238e-14 98.1442208,7.89428919 98.1442208,17.632617" id="Fill-8" fill="#D87234"></path>
                <path d="M70.2057127,71.8184335 C81.9125182,95.66563 80.2952447,129.756281 80.2952447,129.756281 L86.7448274,129.756281 C86.7448274,129.756281 85.8776566,99.4053039 92.2730411,81.7366993 C95.707471,72.2483335 102.245505,59.0818627 119.588921,51.4394866 C124.466756,52.2528928 141.159794,57.5101157 141.159794,57.5101157 L143.110928,52.3612892 C143.110928,52.3612892 112.001176,41.5197033 83.6555315,41.5212209 C46.6381788,41.5197033 19.4306956,51.9277038 19.4306956,51.9277038 L21.1650372,57.0765303 C21.1650372,57.0765303 39.784061,51.5153641 45.9626528,50.5939951 C54.7427569,54.4420655 67.0613514,65.4128598 70.2057127,71.8184335" id="Fill-9" fill="#D77234"></path>
                <path d="M73.8092409,66.7628279 C65.8815656,54.1756272 55.5266793,48.6246503 55.5266793,48.6246503 C55.5266793,48.6246503 69.5457957,46.6011073 83.2581505,46.6011073 C91.9476352,46.6011073 110.989405,49.2030532 110.989405,49.2030532 C110.989405,49.2030532 100.156057,54.466563 93.3208002,66.618444 C84.8658851,81.6495487 83.6193271,93.2115367 83.6193271,93.2115367 C83.6193271,93.2115367 82.0475801,79.8427983 73.8092409,66.7628279" id="Fill-10" fill="#FFFFFE"></path>
            </g>
        </g>
    </g>
</svg>